/* XPM */
static xpm_row_t const cursor_xpm[] = {
"24 24 6 1",
" 	c None",
".	c #000000",
"+	c #CCCBCB",
"@	c #E1E0E0",
"#	c #E4E4E4",
"$	c #878787",
"                        ",
" ..                     ",
" ...                    ",
" .+..                   ",
" .@+..                  ",
" .@#+..                 ",
" .@@@+..                ",
" .@@@@+..               ",
" .@@@@@+..              ",
" .@@@@@@+..             ",
" .@@@@@@@+..            ",
" .@@@@@@@@+..           ",
" .@@@@@@@@@+..          ",
" .@@@@@@@@@@+..         ",
" .@@@@@+++++++..        ",
" .@@@@+$$$$$$$$..       ",
" .@@@+$..........       ",
" .@@+$..                ",
" .@+$..                 ",
" .+$..                  ",
" .$..                   ",
" ...                    ",
" ..                     ",
"                        "};
