/* XPM */
static xpm_row_t const font_xpm[] = {
"160 101 5 1",
" 	c None",
".	c #000000",
"+	c #010101",
"@	c #FEE67A",
"#	c #020202",
"............... ............... ............... ............... ............... ............... ............... ............... ............... ............... ",
"............... ............... ............... ............... ............... ............... ............... ............... ............... ............... ",
".+@@@@@@@@@@@.. .#@@@@@@@@@.... ..@@@@@@@@@@@.. ..@@@@@@@@@@@.. ..@@@@@..@@@@.. ..@@@@@@@@@@@.. ..@@@@@@@@@@@.. ..@@@@@@@@@@@.. ..@@@@@@@@@@@.. ..@@@@@@@@@@@.. ",
".+@@@@@@@@@@@.. .#@@@@@@@@@.... ..@@@@@@@@@@@.. ..@@@@@@@@@@@.. ..@@@@@..@@@@.. ..@@@@@@@@@@@.. ..@@@@@@@@@@@.. ..@@@@@@@@@@@.. ..@@@@@@@@@@@.. ..@@@@@@@@@@@.. ",
".+@@@@@@@@@@@.. .+@@@@@@@@@.... ..@@@@@@@@@@@.. ..@@@@@@@@@@@.. ..@@@@@..@@@@.. ..@@@@@@@@@@@.. ..@@@@@@@@@@@.. ..@@@@@@@@@@@.. ..@@@....@@@@.. ..@@.....@@@@.. ",
".+@@@@.+.@@@@.. .....@@@@@@.... ..@@@....@@@@.. ........@@@@@.. ..@@@@@..@@@@.. ..@@@@@........ ..@@@@......... .........@@@@.. ..@@@....@@@@.. ..@@.....@@@@.. ",
".+@@@@.+.@@@@.. .....@@@@@@.... ..@@@....@@@@.. ........@@@@@.. ..@@@@@..@@@@.. ..@@@@@........ ..@@@@......... .........@@@@.. ..@@@....@@@@.. ..@@.....@@@@.. ",
".+@@@@.+.@@@@.. .....@@@@@@.... .......@@@@@@..   ..@@@@@@@@@.. ..@@@@@@@@@@@.. ..@@@@@@@@@@@.. ..@@@@@@@@@@@.. .........@@@@.. ..@@@@@@@@@@@.. ..@@.....@@@@.. ",
".+@@@@.+.@@@@.. .....@@@@@@.... .......@@@@@@..   ..@@@@@@@@@.. ..@@@@@@@@@@@.. ..@@@@@@@@@@@.. ..@@@@@@@@@@@.. .........@@@@.. ..@@@@@@@@@@@.. ..@@@@@@@@@@@.. ",
".+@@@@.+.@@@@.. .....@@@@@@.... ....@@@@@@@@@..   ..@@@@@@@@@.. ..@@@@@@@@@@@.. ..@@@@@@@@@@@.. ..@@@@.....@@..        ..@@@@.. ..@@@@@@@@@@@.. ..@@@@@@@@@@@.. ",
".+@@@@.+.@@@@.. .....@@@@@@.... ....@@@@@@..... ........@@@@@.. .........@@@@.. ........@@@@@.. ..@@@@.....@@..        ..@@@@.. ..@@@....@@@@.. ........@@@@@.. ",
".+@@@@.+.@@@@.. .....@@@@@@.... ....@@@@@@..... ........@@@@@.. .........@@@@.. ........@@@@@.. ..@@@@.....@@..        ..@@@@.. ..@@@....@@@@.. ........@@@@@.. ",
".+@@@@@@@@@@@.. .#@@@@@@@@@@@.. ..@@@@@@@@@@@.. ..@@@@@@@@@@@.. .........@@@@.. ..@@@@@@@@@@@.. ..@@@@.....@@..        ..@@@@.. ..@@@....@@@@.. ..@@@@@@@@@@@.. ",
".+@@@@@@@@@@@.. .#@@@@@@@@@@@.. ..@@@@@@@@@@@.. ..@@@@@@@@@@@.. .........@@@@.. ..@@@@@@@@@@@.. ..@@@@@@@@@@@..        ..@@@@.. ..@@@@@@@@@@@.. ..@@@@@@@@@@@.. ",
"..@@@@@@@@@@@.. .+@@@@@@@@@@@.. ..@@@@@@@@@@@.. ..@@@@@@@@@@@..        ..@@@@.. ..@@@@@@@@@@@.. ..@@@@@@@@@@@..        ..@@@@.. ..@@@@@@@@@@@.. ..@@@@@@@@@@@.. ",
"............... ............... ............... ...............        ........ ............... ...............        ........ ............... ............... ",
"............... ............... ............... ...............        ........ ............... ...............        ........ ............... ............... ",
"............... ............... ............... ...............        ........ ............... ...............        ........ ............... ............... ",
"............... ............... ............... ...............        ........ ............... ...............        ........ ............... ............... ",
"                                                                                                                                                                ",
"............... ............... ............... .............   ............... ............... ............... ............... ...............       ......... ",
"............... ............... ............... .............   ............... ............... ............... ............... ...............       ......... ",
"..@@@@@@@@@@@.. ..@@@@@@@@@@@.. ..@@@@@@@@@@@.. ..@@@@@@@@@.... ..@@@@@@@@@@@.. ..@@@@@@@@@@@.. ..@@@@@@@@@@@.. ..@@@@..@@@@@.. ..@@@@@@@@@@@..       ..@@@@@.. ",
"..@@@@@@@@@@@.. ..@@@@@@@@@@@.. ..@@@@@@@@@@@.. ..@@@@@@@@@.... ..@@@@@@@@@@@.. ..@@@@@@@@@@@.. ..@@@@@@@@@@@.. ..@@@@..@@@@@.. ..@@@@@@@@@@@..       ..@@@@@.. ",
"..@@@@@@@@@@@.. ..@@@....@@@@.. ..@@@@@@@@@@@.. ..@@@@@@@@@.... ..@@@@@@@@@@@.. ..@@@@@@@@@@@.. ..@@@@@@@@@@@.. ..@@@@..@@@@@.. ..@@@@@@@@@@@..       ..@@@@@.. ",
"..@@@....@@@@.. ..@@@....@@@@.. ..@@@@@@@@@@@.. ..@@@....@@@@.. ..@@@@......... ..@@@@@........ ..@@@@......... ..@@@@..@@@@@.. ....@@@@@@@....       ..@@@@@.. ",
"..@@@....@@@@.. ..@@@....@@@@.. ..@@@@@........ ..@@@....@@@@.. ..@@@@......... ..@@@@@........ ..@@@@......... ..@@@@..@@@@@.. ....@@@@@@@....       ..@@@@@.. ",
"..@@@....@@@@.. ..@@@@@@@@@.... ..@@@@@........ ..@@@....@@@@.. ..@@@@@@@@@..   ..@@@@@@@@@.... ..@@@@......... ..@@@@@@@@@@@.. ....@@@@@@@.... ........@@@@@.. ",
"..@@@@@@@@@@@.. ..@@@@@@@@@.... ..@@@@@....     ..@@@....@@@@.. ..@@@@@@@@@..   ..@@@@@@@@@.... ..@@@@......... ..@@@@@@@@@@@.. ....@@@@@@@.... ........@@@@@.. ",
"..@@@@@@@@@@@.. ..@@@@@@@@@.... ..@@@@@........ ..@@@....@@@@.. ..@@@@@@@@@..   ..@@@@@@@@@..   ..@@@@...@@@@.. ..@@@@@@@@@@@.. ....@@@@@@@.... ..@@@@..@@@@@.. ",
"..@@@@..@@@@@.. ..@@@....@@@@.. ..@@@@@........ ..@@@....@@@@.. ..@@@@......... ..@@@@.......   ..@@@@...@@@@.. ..@@@@..@@@@@.. ....@@@@@@@.... ..@@@@..@@@@@.. ",
"..@@@@..@@@@@.. ..@@@....@@@@.. ..@@@@@@@@@@@.. ..@@@....@@@@.. ..@@@@......... ..@@@@.......   ..@@@@@@@@@@@.. ..@@@@..@@@@@.. ....@@@@@@@.... ..@@@@@@@@@@@.. ",
"..@@@@..@@@@@.. ..@@@....@@@@.. ..@@@@@@@@@@@.. ..@@@@@@@@@.... ..@@@@@@@@@@@.. ..@@@@.......   ..@@@@@@@@@@@.. ..@@@@..@@@@@.. ..@@@@@@@@@@@.. ..@@@@@@@@@@@.. ",
"..@@@@..@@@@@.. ..@@@@@@@@@@@.. ..@@@@@@@@@@@.. ..@@@@@@@@@.... ..@@@@@@@@@@@.. ..@@@@.......   ..@@@@@@@@@@@.. ..@@@@..@@@@@.. ..@@@@@@@@@@@.. ..@@@@@@@@@@@.. ",
"..@@@@..@@@@@.. ..@@@@@@@@@@@.. ..@@@@@@@@@@@.. ..@@@@@@@@@.... ..@@@@@@@@@@@.. ..@@@@..        ..@@@@@@@@@@@.. ..@@@@..@@@@@.. ..@@@@@@@@@@@.. ..@@@@@@@@@@@.. ",
"............... ............... ............... ............... ............... ........        ............... ............... ............... ............... ",
"............... ............... ............... ............... ............... ........        ............... ............... ............... ............... ",
".....   ....... ............... ............... .............   ............... ........        ............... ......   ...... ............... ............... ",
".....   ....... ............... ............... .............   ............... ........        ............... ......   ...... ............... ............... ",
"                                                                                                                                                                ",
"............... ........        ............... ............... ............... ............... .............   ............... ............... ............... ",
"............... ........        ............... ............... ............... ............... .............   ............... ............... ............... ",
"..@@@@...@@@@.. ..@@@@..        ..@@@.....@@@.. ..@@@....@@@@.. ..@@@@@@@@@@@.. ..@@@@@@@@@@@.. ..@@@@@@@@@..   ..@@@@@@@@@@@.. ..@@@@@@@@@@@.. ..@@@@@@@@@@@.. ",
"..@@@@...@@@@.. ..@@@@..        ..@@@.....@@@.. ..@@@....@@@@.. ..@@@@@@@@@@@.. ..@@@@@@@@@@@.. ..@@@@@@@@@..   ..@@@@@@@@@@@.. ..@@@@@@@@@@@.. ..@@@@@@@@@@@.. ",
"..@@@@...@@@@.. ..@@@@..        ..@@@@...@@@@.. ..@@@@@..@@@@.. ..@@@@@@@@@@@.. ..@@@.....@@@.. ..@@@@@@@@@..   ..@@@@@@@@@@@.. ..@@@@@@@@@@@.. ..@@@@@@@@@@@.. ",
"..@@@@...@@@@.. ..@@@@..        ..@@@@@@@@@@@.. ..@@@@@..@@@@.. ..@@@.....@@@.. ..@@@.....@@@.. ..@@@@@@@@@..   ..@@@....@@@@.. ..@@@@@@@@@@@.. ..@@@@@@@@@@@.. ",
"..@@@@@@@@@@@.. ..@@@@..        ..@@@@@@@@@@@.. ..@@@@@..@@@@.. ..@@@.....@@@.. ..@@@.....@@@.. ..@@@...@@@..   ..@@@....@@@@.. ..@@@@@@....... .....@@@@@..... ",
"..@@@@@@@@@.... ..@@@@..        ..@@@@@@@@@@@.. ..@@@@@@@@@@@.. ..@@@.....@@@.. ..@@@.....@@@.. ..@@@...@@@..   ..@@@....@@@@.. ..@@@@@@@@..... .....@@@@@..... ",
"..@@@@@@@@@.... ..@@@@..        ..@@@@@@@@@@@.. ..@@@@@@@@@@@.. ..@@@.....@@@.. ..@@@@@@@@@@@.. ..@@@...@@@..   ..@@@@@@@@@.... ....@@@@@@..... .....@@@@@..... ",
"..@@@@@@@@@@@.. ..@@@@......... ..@@@@@@@@@@@.. ..@@@@@@@@@@@.. ..@@@.....@@@.. ..@@@@@@@@@@@.. ..@@@...@@@..   ..@@@@@@@@@.... ....@@@@@@@@@..   ...@@@@@...   ",
"..@@@@...@@@@.. ..@@@@......... ..@@@@@@@@@@@.. ..@@@..@@@@@@.. ..@@@.....@@@.. ..@@@@@........ ..@@@...@@@.... ..@@@@@@@@@@@.. ....@@@@@@@@@..   ...@@@@@...   ",
"..@@@@...@@@@.. ..@@@@@@@@@@@.. ..@@@.@@@.@@@.. ..@@@..@@@@@@.. ..@@@.....@@@.. ..@@@@@........ ..@@@...@@@.... ..@@@@..@@@@@.. .......@@@@@@..   ...@@@@@...   ",
"..@@@@...@@@@.. ..@@@@@@@@@@@.. ..@@@.@@@.@@@.. ..@@@....@@@@.. ..@@@@@@@@@@@.. ..@@@@@..       ..@@@@@@@@@@@.. ..@@@@..@@@@@.. ..@@@@@@@@@@@..   ...@@@@@...   ",
"..@@@@...@@@@.. ..@@@@@@@@@@@.. ..@@@.....@@@.. ..@@@....@@@@.. ..@@@@@@@@@@@.. ..@@@@@..       ..@@@@@@@@@@@.. ..@@@@..@@@@@.. ..@@@@@@@@@@@..   ...@@@@@...   ",
"..@@@@...@@@@.. ..@@@@@@@@@@@.. ..@@@.....@@@.. ..@@@....@@@@.. ..@@@@@@@@@@@.. ..@@@@@..       ..@@@@@@@@@@@.. ..@@@@..@@@@@.. ..@@@@@@@@@@@..   ...@@@@@...   ",
"............... ............... ............... ............... ............... .........       ..@@@@@@@@@@@.. ..@@@@..@@@@@.. ..@@@@@@@@@@@..   ...@@@@@...   ",
"............... ............... ............... ............... ............... .........       ............... ............... ...............   ...........   ",
"............... ............... .....     ..... ....    ....... ............... .........       ............... ......    ..... ...............   ...........   ",
"............... ............... .....     ..... ....    ....... ............... .........       ............... ......    ..... ...............   ...........   ",
"                                                                                                                                                                ",
"............... ............... ....... ....... ............... ............... ...............                                                                 ",
"............... ..@@@@...@@@@.. ..@@@.. ..@@@.. ............... ..@@@@...@@@@.. ...............                                                                 ",
"..@@@@...@@@@.. ..@@@@...@@@@.. ..@@@.. ..@@@.. ..@@@@..@@@@@.. ..@@@@...@@@@.. ..@@@@@@@@@@@..                                                                 ",
"..@@@@...@@@@.. ..@@@@...@@@@.. ..@@@.....@@@.. ..@@@@..@@@@@.. ..@@@@...@@@@.. ..@@@@@@@@@@@..                                                                 ",
"..@@@@...@@@@.. ..@@@@...@@@@.. ..@@@.....@@@.. ..@@@@..@@@@@.. ..@@@@...@@@@.. ..@@@@@@@@@@@..                                                                 ",
"..@@@@...@@@@.. ..@@@@...@@@@.. ..@@@.@@@.@@@.. ..@@@@..@@@@@.. ..@@@@...@@@@.. ........@@@@@..                                                                 ",
"..@@@@...@@@@.. ..@@@@...@@@@.. ..@@@.@@@.@@@.. ..@@@@@@@@@@@.. ..@@@@...@@@@.. ........@@@@@..                                                                 ",
"..@@@@...@@@@.. ..@@@@...@@@@.. ..@@@@@@@@@@@.. ....@@@@@@@.... ..@@@@...@@@@.. ..@@@@@@@@@@@..                                                                 ",
"..@@@@...@@@@.. ..@@@@...@@@@.. ..@@@@@@@@@@@.. ....@@@@@@@.... ..@@@@@@@@@@@.. ..@@@@@@@@@@@..                                                                 ",
"..@@@@...@@@@.. ..@@@@...@@@@.. ..@@@@@@@@@@@.. ....@@@@@@@.... ..@@@@@@@@@@@.. ..@@@@@@@@@@@..                                                                 ",
"..@@@@...@@@@.. ..@@@@...@@@@.. ..@@@@@@@@@@@.. ..@@@@..@@@@@.. ...@@@@@@@@@... ..@@@@@........                                                                 ",
"..@@@@...@@@@.. ..@@@@...@@@@.. ..@@@@@@@@@@@.. ..@@@@..@@@@@.. ....@@@@@@@.... ..@@@@@........                                                                 ",
"..@@@@@@@@@@@.. ...@@@@@@@@@... ..@@@@...@@@@.. ..@@@@..@@@@@..  ....@@@@@....  ..@@@@@@@@@@@..                                                                 ",
"..@@@@@@@@@@@.. ....@@@@@@@.... ..@@@.....@@@.. ..@@@@..@@@@@..   ...@@@@@...   ..@@@@@@@@@@@..                                                                 ",
"..@@@@@@@@@@@.. .....@@@@@..... ..@@@.....@@@.. ..@@@@..@@@@@..    ..@@@@@..    ..@@@@@@@@@@@..                                                                 ",
"..@@@@@@@@@@@.. ......@@@...... ..@@.......@@.. ..@@@@..@@@@@..    ..@@@@@..    ..@@@@@@@@@@@..                                                                 ",
"...............  .............  ............... ...............    .........    ...............                                                                 ",
"...............   ...........   ............... ...............    .........    ...............                                                                 ",
"...............    .........    +++++     +++++ ...............    .........    ...............                                                                 ",
"...............     .......     ....       .... ...............    .........    ...............                                                                 ",
"                                                                                                                                                                ",
"                   .........                                                                                                                                    ",
"                   .........                                                                                                                                    ",
"                   ..@@@@@..                                                                                                                                    ",
"                   ..@@@@@..                                                                                                                                    ",
"                   ..@@@@@..                                                                                                                                    ",
"                   ..@@@@@..                                                                                                                                    ",
"...............    ..@@@@@..                                                                                                                                    ",
"...............    ..@@@@@..                                                                                                                                    ",
"..@@@@@@@@@@@..    .........                                                                                                                                    ",
"..@@@@@@@@@@@..    .........                                                                                                                                    ",
"..@@@@@@@@@@@..    .........                                                                                                                                    ",
"...............    ..@@@@@..                                                                                                                                    ",
"...............    ..@@@@@..                                                                                                                                    ",
"...............    ..@@@@@..                                                                                                                                    ",
"                   ..@@@@@..                                                                                                                                    ",
"                   ..@@@@@..                                                                                                                                    ",
"                   ..@@@@@..                                                                                                                                    ",
"                   .........                                                                                                                                    ",
"                   .........                                                                                                                                    ",
"                                                                                                                                                                "};
