/* XPM */
static xpm_row_t const sp_score_xpm[] = {
"136 28 4 1",
" 	c None",
".	c #000000",
"+	c #FEDB3A",
"@	c #FEE67A",
"........................................................................................................................................",
"........................................................................................................................................",
"........................................................................................................................................",
"..+++++++++++++++++++++++.....@@@@@@@@@@@@@@@@@@@.....+++++++++++++++++++++++......@@@@@@@@@@@@@@@@@@@@@@......++++++++++++++++++++++...",
"..+++++++++++++++++++++++.....@@@@@@@@@@@@@@@@@@@.....+++++++++++++++++++++++......@@@@@@@@@@@@@@@@@@@@@@......++++++++++++++++++++++...",
"..+++++++++++++++++++++++.....@@@@@@@@@@@@@@@@@@@.....+++++++++++++++++++++++......@@@@@@@@@@@@@@@@@@@@@@......++++++++++++++++++++++...",
"..+++++++++++++++++++++++.....@@@@@@@@@@@@@@@@@@@.....+++++++++++++++++++++++......@@@@@@@@@@@@@@@@@@@@@@......++++++++++++++++++++++...",
"..+++++++++++++++++++++++.....@@@@@@@@@@@@@@@@@@@.....+++++++++++++++++++++++......@@@@@@@@@@@@@@@@@@@@@@......++++++++++++++++++++++...",
"..+++++++++++++++++++++++.....@@@@@@@@@@@@@@@@@@@.....+++++++++++++++++++++++......@@@@@@@@@@@@@@@@@@@@@@......++++++++++++++++++++++...",
"..+++++++++++++++.............@@@@@@@@@@..............++++++++++...++++++++++......@@@@@@@@@@..................++++++++++..++++++++++...",
"..+++++++++++++++.............@@@@@@@@@@..............++++++++++...++++++++++......@@@@@@@@@@..................++++++++++..++++++++++...",
"..+++++++++++++++++++++++.....@@@@@@@@@@..............++++++++++...++++++++++......@@@@@@@@@@..................++++++++++..++++++++++...",
"..+++++++++++++++++++++++.....@@@@@@@@@@..............++++++++++...++++++++++......@@@@@@@@@@..................++++++++++..++++++++++...",
"...........++++++++++++++.....@@@@@@@@@@..............++++++++++...++++++++++......@@@@@@@@@@..................++++++++++...............",
"...........++++++++++++++.....@@@@@@@@@@..............++++++++++...++++++++++......@@@@@@@@@@..................++++++++++...............",
"..+++++++++++++++++++++++.....@@@@@@@@@@@@@@@@@@@.....+++++++++++++++++++++++......@@@@@@@@@@..             ...++++++++++++++++++++++...",
"..+++++++++++++++++++++++.....@@@@@@@@@@@@@@@@@@@.....+++++++++++++++++++++++......@@@@@@@@@@..             ...++++++++++++++++++++++...",
"..+++++++++++++++++++++++.....@@@@@@@@@@@@@@@@@@@.....+++++++++++++++++++++++......@@@@@@@@@@..             ...++++++++++++++++++++++...",
"..+++++++++++++++++++++++.....@@@@@@@@@@@@@@@@@@@.....+++++++++++++++++++++++......@@@@@@@@@@..             ...++++++++++++++++++++++...",
"..+++++++++++++++++++++++.....@@@@@@@@@@@@@@@@@@@.....+++++++++++++++++++++++......@@@@@@@@@@..             ...++++++++++++++++++++++...",
"..+++++++++++++++++++++++.....@@@@@@@@@@@@@@@@@@@.....+++++++++++++++++++++++......@@@@@@@@@@..             ...++++++++++++++++++++++...",
"...............................................................................................             ............................",
"...............................................................................................             ............................",
"...............................................................................................             ............................",
"...............................................................................................             ............................",
"...............................................................................................             ............................",
"...............................................................................................             ............................",
"...............................................................................................             ............................"};
