/* XPM */
static xpm_row_t const aim_xpm[] = {
"32 32 2 1",
" 	c None",
".	c #5E5B58",
"                                ",
"                                ",
"               ...              ",
"               ...              ",
"               ...              ",
"               ...              ",
"               ...              ",
"               ...              ",
"         ...         ...        ",
"         ...         ...        ",
"         ...         ...        ",
"               ...              ",
"               ...              ",
"               ...              ",
"   ......   .........   ......  ",
"   ......   .........   ......  ",
"   ......   .........   ......  ",
"               ...              ",
"               ...              ",
"         ...   ...   ...        ",
"         ...         ...        ",
"         ...         ...        ",
"                                ",
"               ...              ",
"               ...              ",
"               ...              ",
"               ...              ",
"               ...              ",
"               ...              ",
"                                ",
"                                ",
"                                "};
