/* XPM */
static xpm_row_t const ball_xpm[] = {
"32 32 4 1",
" 	c None",
".	c #000000",
"+	c #FFE54F",
"@	c #FFED6A",
"           ..........           ",
"           ..........           ",
"           ..........           ",
"           ..........           ",
"    .......++++++++++.......    ",
"    .......++++++++++.......    ",
"    .......++++++++++.......    ",
"    ...++++@@@+++++++@@@@...    ",
"    ...++++@@@+++++++@@@@...    ",
"    ...++++@@@+++++++@@@@...    ",
"    ...++++@@@+++++++@@@@...    ",
"....+++++++@@@@@@@+++++++@@@....",
"....+++++++@@@@@@@+++++++@@@....",
"....+++++++@@@@@@@+++++++@@@....",
"....++++++++++@@@@+++++++@@@....",
"....++++++++++@@@@+++++++@@@....",
"....++++++++++@@@@+++++++@@@....",
"....++++++++++@@@@+++++++@@@....",
"....++++++++++@@@@+++++++@@@....",
"....++++++++++@@@@+++++++@@@....",
"....++++++++++@@@@+++++++@@@....",
"    ...++++@@@@@@@+++++++...    ",
"    ...++++@@@@@@@+++++++...    ",
"    ...++++@@@@@@@+++++++...    ",
"    ...++++@@@@@@@+++++++...    ",
"    .......@@@+++++++.......    ",
"    .......@@@+++++++.......    ",
"    .......@@@+++++++.......    ",
"           ..........           ",
"           ..........           ",
"           ..........           ",
"           ..........           "};
