/* XPM */
static xpm_row_t const ball_xpm[] = {
"16 16 6 1",
" 	c None",
".	c #000000",
"+	c #FFFFFF",
"@	c #DFFF20",
"#	c #B0C919",
"$	c #E1E0E0",
"                ",
"     ......     ",
"    .+@@@@+.    ",
"   .++@@@@++.   ",
"  .+++@@@@+++.  ",
" .@@++@@@@++@@. ",
" .@@++@@@@++@@. ",
" .@@++@@@@++@#. ",
" .@@++@@@@+$##. ",
" .@@++@###$$##. ",
" .@@$$####$$##. ",
"  .$$$####$$$.  ",
"   .$$####$$.   ",
"    .$####$.    ",
"     ......     ",
"                "};
