/* XPM */
static xpm_row_t const mp_score_xpm[] = {
"179 19 4 1",
" 	c None",
".	c #000000",
"+	c #FEDB3A",
"@	c #FEE67A",
"................................                                                                                                                 ..................................",
"................................                                                                                                                 ..................................",
"..+++++++++++++....@@@@@@@@.....                                                                                                                 ..+++++++++++++...@@@@@@@@@@@@@@..",
"..+++++++++++++....@@@@@@@@.....                                                                                                                 ..+++++++++++++...@@@@@@@@@@@@@@..",
"..+++++++++++++....@@@@@@@@.....                                                                                                                 ..+++++++++++++...@@@@@@@@@@@@@@..",
"..++++++..+++++.......@@@@@.....                                                                                                                 ..+++++..++++++...@@@@....@@@@@@..",
"..++++++..+++++.......@@@@@.....                                                                                                                 ..+++++..++++++...@@@@....@@@@@@..",
"..+++++++++++++.......@@@@@.....                                                                                                                 ..+++++++++++++........@@@@@@@@@..",
"..+++++++++++++.......@@@@@.....                                                                                                                 ..+++++++++++++........@@@@@@@@@..",
"..+++++++++++++.......@@@@@.....                                                                                                                 ..+++++++++++++......@@@@@@@@@@@..",
"..++++++..............@@@@@.....                                                                                                                 ..+++++..............@@@@@@.......",
"..++++++..............@@@@@.....                                                                                                                 ..+++++..............@@@@@@.......",
"..++++++..       ..@@@@@@@@@@@..                                                                                                                 ..+++++..        .@@@@@@@@@@@@@@..",
"..++++++..       ..@@@@@@@@@@@..                                                                                                                 ..+++++..        .@@@@@@@@@@@@@@..",
"..++++++..       ..@@@@@@@@@@@..                                                                                                                 ..+++++..        .@@@@@@@@@@@@@@..",
"..........       ...............                                                                                                                 .........        .................",
"..........       ...............                                                                                                                 .........        .................",
"..........       ...............                                                                                                                 .........        .................",
"..........       ...............                                                                                                                 .........        ................."};
