/* XPM */
static xpm_row_t const playerupright_0_xpm[] = {
"90 96 20 1",
" 	c None",
".	c #000000",
"+	c #1C2E4A",
"@	c #152238",
"#	c #B8A075",
"$	c #FBDBA0",
"%	c #0B131F",
"&	c #CCCCCC",
"*	c #153833",
"=	c #5E5B58",
"-	c #8B8681",
";	c #7D3C32",
">	c #66130D",
",	c #171717",
"'	c #A11E15",
")	c #96540F",
"!	c #E17D17",
"~	c #686868",
"{	c #A6A6A6",
"]	c #FFFFFF",
"                                                                                          ",
"                                                                                          ",
"                                                                                          ",
"                                          ..    ..                                        ",
"                                         ..+.....@..    ..                                ",
"                                      ...@.+@.@.@@@..  ....                               ",
"                                 ......@@@.++.@.@@@@....@+.                               ",
"                                   ..+++++@.+..@@@+++..@@+.    .                          ",
"                                    .....++.++.++++...@@@+.   .+.                         ",
"                                   ..@@@..+........@@@@@@+. ...+.                         ",
"                                  ..@@@@@....@@@@@@@@++++....@@+.                         ",
"                                ..@@@@@@@..@@@@+++++++....@@@@@+.                         ",
"                               ..@@@@@@@@@..++++......@@@@@@@@++.                         ",
"                             ...@@@@@@@@@@@.....@@@@@@@@@@@@@@+..                         ",
"                           ...@@@@@@@++++...###...+++++@@@@@@++.                          ",
"                           ..++++@++++....###$###.....++@@@@++..  .                       ",
"                            ....+++...@@.##$$$$$$##.@..++++++..  ..                       ",
"                              .....@@@@..#$$$$$$$$#..@@..........+..                      ",
"                               .@@@@@@..##$$$$$$$$###.@@@@@@@@@@@++.                      ",
"                               .@@@@@@.##$$$$$$$$$$##..@@@@@@@@@++.                       ",
"                               .@@@@@..#$$$$$$$$$$$$##.@@@@@@@@++..                       ",
"                              ..@@@@+.#%%%%%%$$%%%%%%#..++++@@++.                         ",
"                             ..@@@@+..#%$$$$$$$$$$$$%##....+++....                        ",
"                             .@@+++.@.#$$...$$$$...$$$#.@@.....@+.                        ",
"                             .++.+.@..#$$.&.$$$$.&.$$$#..@@@@@@++.                        ",
"                            ..+....@.#$$$.*.$$$$.*.$$$##.+++@@++..                        ",
"                            .....@@@.#$$$$$$$$$$$$$$$$$#...++@+..                         ",
"                                .@@+.#$$$$$$$$$$$$$$$$##.@..++..                          ",
"                                .@+..##$$$$$$.$$$$$$$$#..@@@....                          ",
"                                .@+.@.#$$$$$$...$$$$$$#..@@@@@@..                         ",
"                               ..+..@.##$$$$$$$$$$$$$$#..@@@@@@@.          .......        ",
"                               .@+.@@..#$$$$%%%%%$$$$$#.++++++...         .. = = ..       ",
"                              ..+.@@@@.##$$%%...%%$$$##.......            .==---==.       ",
"                              ....@@@@..#$$%..;..%$$$#..@@@..            ..= - - =..      ",
"                                 .@@+++.##$$;;;;;$$$##.@@@@@.           ..==------=..     ",
"                                 .@@+....##$$...$$$##..@@@@..           .= - - - -  .     ",
"                                 .@++.+@..##$$$$$$##..@...@.           ..=---------=.     ",
"                                 .++...++..#$$$$$$#..++. ...           . - - - - -  .     ",
"                                ..... ..++.#%%%%%%#.....               .=----------=.     ",
"                                       .....%%%%%......                . - - - - -  .     ",
"                                          ....%%...                    .=----------=.     ",
"                                          .#$...$#.                    . - - - - -  .     ",
"                                          .#$$$$$#.                    .=----------=.     ",
"                                          .#######.                    . - - - - - ..     ",
"                                     ...................               .==-------==.      ",
"                                    ..>>>>>>>>>>>>>>>>>...             .,= - - - =..      ",
"                                   ..>>'''''''''''''''>>>..            .,,==-----=.       ",
"                                  ..>>''''''''''''''''''>>..           .,,,= - = ..       ",
"                                 ..>>''''''''''''''''''''>>..          .,,,,,= ...        ",
"                                ..>>''''''''''''''''''''''>>.         ..=,......          ",
"                                .>>''''''''''''''''''''''''>..       ..==..               ",
"                               ..>'''''''''''''''''''''''''>>.      ..--..                ",
"                               .>>'>>>''''''''''''''''''>>>>>..    ..--..                 ",
"                              ..>''>.>''''''''''''''''''>.>>>>.   ..--..                  ",
"                              .>>>>>.>''''''''''''''''''>....... ..--..                   ",
"                              .......>''''''''''''''''''>.#$$$#...==..                    ",
"                              .#$$$#.>''''''''''''''''''>.#$$$#..,=..                     ",
"                              .#$$$#.>''''''''''''''''''>.######.,..                      ",
"                              .#$$$#.>''''''''''''''''''>....###...                       ",
"                              .#$###.>''''''''''''''''''>.  .....                         ",
"                              .#$#...>''''''''''''''''''>.                                ",
"                              .###. .>''''''''''''''''''>.                                ",
"                              .##.. .>''''''''''''''''''>.                                ",
"                              .##.  .>''''''''''''''''''>.                                ",
"                              ....  .>''''''''''''''''''>.                                ",
"                                    .>''''''''''''''''''>.                                ",
"                                    .>>>>>>>>>>>>>>>>>>>>.                                ",
"                                    ......................                                ",
"                                    .)))))))))))))))))))).                                ",
"                                    .)!!!!!!!!!!!!!!!!!!).                                ",
"                                    .)!!!!!!!!!!!!!!!!!!).                                ",
"                                    .)!!!!!!!!!!!!!!!!!!).                                ",
"                                    .)!!!!!!!!!!!!!!!!!!).                                ",
"                                    .)!!!!!!!!!!!!!!!!!!).                                ",
"                                    .)!!!!!!!!!!!!!!!!!!).                                ",
"                                    .)!!!!!!))))))!!!!!!).                                ",
"                                    .)!!!!!!)....)!!!!!!).                                ",
"                                    .)!!!!!!).  .)!!!!!!).                                ",
"                                    .)!!!!!!).  .)!!!!!!).                                ",
"                                    .)))))))).  .)))))))).                                ",
"                                    ..........  ..........                                ",
"                                      .#$$$#.    .#$$$#.                                  ",
"                                      .#$$$#.    .#$$$#.                                  ",
"                                      .#####.    .#####.                                  ",
"                                      .......    .......                                  ",
"                                      .>>>>>.    .>>>>>.                                  ",
"                                     .........  .........                                 ",
"                                 ~~~..{{{{{{{.~~.{{{{{{{..~~~~~                           ",
"                              ~~~~~..{{]]]]]{.~~.{]]]]]{{..~~~~~                          ",
"                             ~~~~~..{{]]]]]]{.~~.{]]]]]]{{..~~~~~                         ",
"                            ~~~~~..{{{{{{{{{{.~~.{{{{{{{{{{..~~~~~                        ",
"                           ~~~~~~.............~~.............~~~~~~                       ",
"                            ~~~~~~~~~~~~~~~~~~~~~~~~~~~~~~~~~~~~~~                        ",
"                             ~~~~~~~~~~~~~~~~~~~~~~~~~~~~~~~~~~~~                         ",
"                              ~~~~~~~~~~~~~~~~~~~~~~~~~~~~~~~~~                           ",
"                                                                                          "};
