/* XPM */
static xpm_row_t const playerdown1_xpm[] = {
"60 64 60 1",
" 	c None",
".	c #110C13",
"+	c #0E0814",
"@	c #120D13",
"#	c #5C524E",
"$	c #120B13",
"%	c #4E433F",
"&	c #1E191F",
"*	c #1E1C21",
"=	c #0C0A0F",
"-	c #0B0B0B",
";	c #171115",
">	c #17111B",
",	c #1E1920",
"'	c #19141B",
")	c #110F14",
"!	c #101012",
"~	c #09040B",
"{	c #121013",
"]	c #0F0F0F",
"^	c #131116",
"/	c #0D080E",
"(	c #0C0B11",
"_	c #130417",
":	c #131019",
"<	c #130E0A",
"[	c #170F1A",
"}	c #200C0D",
"|	c #171324",
"1	c #150400",
"2	c #09080D",
"3	c #251311",
"4	c #2A0500",
"5	c #160700",
"6	c #080518",
"7	c #00010E",
"8	c #211112",
"9	c #1C0500",
"0	c #1A0000",
"a	c #2A1000",
"b	c #170503",
"c	c #1A0C0B",
"d	c #1A0D1E",
"e	c #A78F63",
"f	c #150E1E",
"g	c #160E19",
"h	c #99A5BD",
"i	c #CBDBFC",
"j	c #000000",
"k	c #5F5864",
"l	c #847E87",
"m	c #E7C89C",
"n	c #B39B79",
"o	c #FFFFFF",
"p	c #2C2814",
"q	c #394F24",
"r	c #060211",
"s	c #917D62",
"t	c #0C0810",
"u	c #9BADB7",
"                                                            ",
"                                                            ",
"                                                            ",
"                                                            ",
"                                                            ",
"                                                            ",
"                                                            ",
"                        ...+..+..@                          ",
"                      ..###+##$#%%&*                        ",
"                     .###########%%%=                       ",
"                    @#############%%%-                      ",
"                    @############%%%%;                      ",
"                    @########%%%%%%%%%>                     ",
"                   @%%#######%%%%%%%%%,                     ",
"                   '%%%#%%%%%%%%%%%%%%)                     ",
"                   '%%%%%%%%%%%%%%%%%%!                     ",
"                   ~.%%%%%%%%%%%%%%%%%!                     ",
"                    ~%%%%%%%%%%%%%%%%%)                     ",
"                    ~%%%%%%%%%%%%%%%%%{                     ",
"                    ]%%%%%%%%%%%%%%%%%^                     ",
"                    /%%%%%%%%%%%%%%%%%(                     ",
"                    _%%%%%%%%%%%%%%%%:                      ",
"                     _<%%%%%%%%%%%%%[                       ",
"                       }%%%%%%%%%%%%|                       ",
"                       1%%%%%%%%%%%2                        ",
"                        13%%%%%%4567                        ",
"                          890abcc                           ",
"                           deeef                            ",
"                         ddgddgddd                          ",
"                       ddhhhiiihhhddj                       ",
"                      dhhhhhhhhhhhhhhj                      ",
"                     ddhhhhhhhhhhhhhhhj                     ",
"                  kkkdddhhhhhhhhhhhhhdj                     ",
"                kklldmmdhhhhhhhhhhhjdnnj                    ",
"                kk odmmdhhhhhhhhhhhjnmnd                    ",
"               kl odmmmdhhhhhhhhhhhjdnmnd                   ",
"               klo dmmmdhhhhhhhhhhhjdnmnd                   ",
"                l o dmmdhhhhhhhhhhhdnmmnd                   ",
"                lo odmmdhhhhhhhhhhhdmnnd                    ",
"                 l  odmdhhhhhhhhhhhdndd                     ",
"                  llldmmddjjjjjdjjjnd                       ",
"                     ldmdffffffffffd                        ",
"                       dpppppppppppj                        ",
"                       dpqqqqqqqqqpj                        ",
"                       dpqqqqqqqqqpj                        ",
"                      fdpqqqqqqqqqpj                        ",
"                      fpqqqqpdrqqqqpj                       ",
"                      dpqqqpfdfpqqqpf                       ",
"                     dpqqqqpf dpqqqqpd                      ",
"                     dpqqqqpd dpqqqqpf                      ",
"                     dpqqqqpd dpqqqqpd                      ",
"                     dddddddd dddddddf                      ",
"                     dsmsd       dsmsf                      ",
"                     dsmsd       dsmsf                      ",
"                     dffff       dtfff                      ",
"                     duoud       fuouf                      ",
"                    fdffff       ffffff                     ",
"                   foooooof     foooooof                    ",
"                  fuuuuuuuf     fuuuuuuuf                   ",
"                   ffffffff      fffffff                    ",
"                                                            ",
"                                                            ",
"                                                            ",
"                                                            "};
