/* XPM */
static xpm_row_t const playerdownleft_1_xpm[] = {
"90 96 18 1",
" 	c None",
".	c #000000",
"+	c #331A0D",
"@	c #451E09",
"#	c #59260B",
"$	c #5E5B58",
"%	c #8B8681",
"&	c #855A2C",
"*	c #614220",
"=	c #3F1414",
"-	c #550015",
";	c #171717",
">	c #800022",
",	c #940128",
"'	c #942E49",
")	c #696969",
"!	c #A6A6A6",
"~	c #FFFFFF",
"                                                                                          ",
"                                                                                          ",
"                                                                                          ",
"                                                                                          ",
"                                        ..                                                ",
"                                       .......      ....                                  ",
"                                     ...++++.........++......                             ",
"                                   ...+++@@+++++++++++++++++..                            ",
"                               .....+++@@@@###@@@@@@@@@@@@@+...                           ",
"                            ....+..++@@@@@@#..+@@@@+.@@@@@@+++..                          ",
"                            .+..+++++@@@@@@#.++@@@@+.#@@@@@@@++..                         ",
"                           ..++++@@@#.+@@@@#.++++@@+.#@@@@@@@@++.                         ",
"                           .++@@@@@@#.+@@@@#.++.++++.#@@@@@@+.+...                        ",
"                           .+@@@@@@@#.++++@#.....+..##@@@.+@+.+++..                       ",
"                           .+@@@##.+#.++.+@#####...##@@@@.++++.#++.                       ",
"                          .++@@@#.++##...+@@@@@#####@@@@@.++.+.+++.                       ",
"                         ..+@@@##.+++####.@@@@@@@@@@@@@@@.+...#+..                        ",
"                         .++@@@##...+@@@##@@@@+.@@@#.++@@@.####+.                         ",
"                         .++@@@@###.+@++@@@@@++.#@@##.++++###@@++..                       ",
"                         ..+@@@@@@#.++..++..+.+.#@@@#...+.#@@@@@++..                      ",
"                         ..+@@@@@@#.++..++..+...#@@@@##..##+++@@++..                      ",
"                         ..+@@#.+@#...##..#..####@@@@@@###@+..@@+.                        ",
"                          .+@@#.+@@###########@@@@@@.++@@@@+.#@@+..                       ",
"                         ..+@@#.+++@@@@@@@@@@@@@@@@##.+@@@+.##@@++.                       ",
"                         .++@@#....@@@@@@@@@@@@@@@@@#.++++..#@@@++.                       ",
"                         ..+++####@@.+@@@@@@@@@@+..@##.+..###@+++..                       ",
"                          ...@@@@##.+++++@@@@@@@+..@@#...#++@@+...                        ",
"                          .+@@@@@@#.++..+++++.+++.#@@####++.#@+++.                        ",
"                          .+++@@@@##..#...++...+.##@@@@@@+.#@@@+.                         ",
"                           ..+@@@@@####..#..##...#@@@@@@@+.#@+++.                         ",
"                            .+@#.+@@@@############@@@@++++.#++..                          ",
"                            .+@#.+++@@@@@@@@@@@@@@+++++...##+...                          ",
"                           ..+@#...++++@@+++@@@@+++..++.###@+++.                          ",
"                           ..++###...+.@@..+@@@++.+..++.#@@++++.                          ",
"           .......          ..+.@###..#@@#.+++++...##..##@@+...                           ",
"          .. $ $ ..          ...+@@####@@##.....########@@@+.                             ",
"          .$$%%%$$..           .+@@@@@@@@@#######@@@@@@@@@@+.                             ",
"         ..$ % % % ..          .+@@@@@@@@@@@@@@@@@@@@@@+++++.                             ",
"        ..$$%%%%%%%$.          .++++.+@+.++@..+++.++++++.....                             ",
"        .  % % % % $..         ......+++..++..++..++..++++.                               ",
"        .$%%%%%%%%%$$.              ..+...........++.....+.                               ",
"        .  % % % % % .               ...  ...&&&&....   ..                                ",
"        .$%%%%%%%%%%$.                    .*&&&&&*.                                       ",
"        .  % % % % % .                    .*&&&&&*.                                       ",
"        .$%%%%%%%%%%$.                    .*******.                                       ",
"        .  % % % % % .               ...................                                  ",
"        ..%%%%%%%%%%$.              ..=================...                                ",
"         . $ % % % % .             ..==---------------===..                               ",
"         ..$%%%%%%%%$.            ..==------------------==..                              ",
"          .$ % % % %;.           ..==--------------------==..                             ",
"          ..$%%%%%;;;.          ..==----------------------==.                             ",
"           ... % ;;;;.          .==------------------------=..                            ",
"             ..$;;;;;..        ..=-------------------------==.                            ",
"               ....;$$..       .==-===------------------=====..                           ",
"                   ..$%..     ..=--=.=------------------=.====.                           ",
"                    ..%%..    .=====.=------------------=......                           ",
"                     ..%%..   .......=------------------=.*&&*.                           ",
"                      ..%%..  .*&&&*.=------------------=.*&&*.                           ",
"                       ..$$....*&&&*.=------------------=.*&&*.                           ",
"                        ..$;..******.=------------------=.****.                           ",
"                         ..;..***....=------------------=...**.                           ",
"                          ........  .=------------------=. .**.                           ",
"                                    .=------------------=. .**.                           ",
"                                    .=------------------=. ..*.                           ",
"                                    .=------------------=.  ...                           ",
"                                    .=------------------=.                                ",
"                                    .=------------------=.                                ",
"                                    .====================.                                ",
"                                   ........................                               ",
"                                   .>>>>>>>>>>>>>>>>>>>>>>.                               ",
"                                  ..>,,,,,,,,,,,,,,,,,,,,>.                               ",
"                                  .>>,,,,,,,,,,,,,,,,,,,,>..                              ",
"                                  .>,,.>,,,.>,>.,,>.,,,>.>>.                              ",
"                                 ..>,,.>,,,.>,>.,,>.,,,>.,>..                             ",
"                                 .>>,..>,,..>,>..,>..,,>..>>.                             ",
"                                 .>,,.>>,,.>>,>>.,>>.,,>>.,>.                             ",
"                                 .>,,.>,,,.>,,,>.,,>..,,>.,>.                             ",
"                                ..>,,.>,,,.>,,,>.,,>>.,,>.,>..                            ",
"                                .>>,..>,,..>,,,>..,,>.,,>..,>.                            ",
"                               ..>,,.>>,,.>>,,,>>.,,>..,>>.,>..                           ",
"                               .>>>>.>>>>.>>>>>>>.>>>>.>>>.>>>.                           ",
"                               ................................                           ",
"                                     ..*****.    .*****..                                 ",
"                                    ...*****.    .*****...                                ",
"                                     ........    ........                                 ",
"                                      .'''''.    .'''''.                                  ",
"                                     .........  .........                                 ",
"                                 )))..!!!!!!!.)).!!!!!!!..)))))                           ",
"                              )))))..!!~~~~~!.)).!~~~~~!!..)))))                          ",
"                             )))))..!!~~~~~~!.)).!~~~~~~!!..)))))                         ",
"                             ))))..!!!!!!!!!!.)).!!!!!!!!!!..))))                         ",
"                             )))).............)).............))))                         ",
"                             ))))))))))))))))))))))))))))))))))))                         ",
"                             ))))))))))))))))))))))))))))))))))))                         ",
"                              )))))))))))))))))))))))))))))))))                           ",
"                                                                                          "};
