/* XPM */
static xpm_row_t const  playerup_xpm[] = {
"90 96 105 2",
"  	c None",
". 	c #110C13",
"+ 	c #0E0814",
"@ 	c #120D13",
"# 	c #564D42",
"$ 	c #120B13",
"% 	c #3B3024",
"& 	c #1E191F",
"* 	c #1E1C21",
"= 	c #0C0A0F",
"- 	c #0B0B0B",
"; 	c #171115",
"> 	c #17111B",
", 	c #1E1920",
"' 	c #19141B",
") 	c #110F14",
"! 	c #060000",
"~ 	c #110A11",
"{ 	c #101012",
"] 	c #09040B",
"^ 	c #130C04",
"/ 	c #A78F63",
"( 	c #1F1400",
"_ 	c #150D1C",
": 	c #AB8560",
"< 	c #290F00",
"[ 	c #150400",
"} 	c #130417",
"| 	c #9D8F75",
"1 	c #A89668",
"2 	c #A98257",
"3 	c #A78770",
"4 	c #E7C89C",
"5 	c #EFCAAD",
"6 	c #121013",
"7 	c #0F0F0F",
"8 	c #FFFFFF",
"9 	c #1E0F12",
"0 	c #F4CAA4",
"a 	c #231A11",
"b 	c #131116",
"c 	c #0D080E",
"d 	c #F3C89B",
"e 	c #F0C5A3",
"f 	c #1C0F19",
"g 	c #0C0B11",
"h 	c #170C12",
"i 	c #FBC39E",
"j 	c #F5C796",
"k 	c #E9C39C",
"l 	c #F8C399",
"m 	c #EEC49E",
"n 	c #F1C79F",
"o 	c #210D18",
"p 	c #131019",
"q 	c #130E0A",
"r 	c #F8BF94",
"s 	c #F6C79B",
"t 	c #270300",
"u 	c #27262E",
"v 	c #170F1A",
"w 	c #200C0D",
"x 	c #F3C095",
"y 	c #F7C998",
"z 	c #23060B",
"A 	c #171324",
"B 	c #AD844E",
"C 	c #2A0F00",
"D 	c #09080D",
"E 	c #251311",
"F 	c #2A0500",
"G 	c #160700",
"H 	c #080518",
"I 	c #00010E",
"J 	c #211112",
"K 	c #1C0500",
"L 	c #1A0000",
"M 	c #2A1000",
"N 	c #170503",
"O 	c #1A0C0B",
"P 	c #1A0D1E",
"Q 	c #150E1E",
"R 	c #160E19",
"S 	c #D8E4FC",
"T 	c #99A5BD",
"U 	c #000000",
"V 	c #5F5864",
"W 	c #CBDBFC",
"X 	c #847E87",
"Y 	c #4A444E",
"Z 	c #B39B79",
"` 	c #666269",
" .	c #C5C5C5",
"..	c #BB696B",
"+.	c #C6B3C2",
"@.	c #B88084",
"#.	c #5C423D",
"$.	c #94857B",
"%.	c #120B10",
"&.	c #465E4D",
"*.	c #191120",
"=.	c #9BADB7",
"-.	c #060211",
";.	c #917D62",
">.	c #0C0810",
"                                                                                                                                                                                    ",
"                                                                                                                                                                                    ",
"                                                                                                                                                                                    ",
"                                                                                                                                                                                    ",
"                                                                                                                                                                                    ",
"                                                                                                                                                                                    ",
"                                                                                                                                                                                    ",
"                                                                                                                                                                                    ",
"                                                                                                                                                                                    ",
"                                                                                                                                                                                    ",
"                                                                        . . . . + + . . . + . . . @ @                                                                               ",
"                                                                        . . . . + + . . . + . . . @ @                                                                               ",
"                                                                  . . . # # # # + + # # # $ # # % % % & * *                                                                         ",
"                                                              . . # # # # # # # # # # # # # # # # % % % % % =                                                                       ",
"                                                              . . # # # # # # # # # # # # # # # # % % % % % =                                                                       ",
"                                                            @ # # # # # # # # # # # # # # # # # # # # % % % % - -                                                                   ",
"                                                            @ # # # # # # # # # # # # # # # # # # % % % % % % ; ;                                                                   ",
"                                                            @ # # # # # # # # # # # # # # # # # # % % % % % % ; ;                                                                   ",
"                                                            @ # # # # # # # # # # # # % % % % % % % % % % % % % % >                                                                 ",
"                                                        @ @ % % % # # # # # # # # # # % % % % % % % % % % % % % % ,                                                                 ",
"                                                        @ @ % % % # # # # # # # # # # % % % % % % % % % % % % % % ,                                                                 ",
"                                                        ' ' % % % % # # % % % % % % % % % % % % % % % % % % % % % )                                                                 ",
"                                                        ' ' % % % % % % % ! ! % % % % % % ~ % % % % % % % % % % % {                                                                 ",
"                                                        ' ' % % % % % % % ! ! % % % % % % ~ % % % % % % % % % % % {                                                                 ",
"                                                        ] ] . % % % ^ ^ ^ / / ( ( ( % _ _ : < < [ [ [ % % % % % % {                                                                 ",
"                                                            ] % % } | | | | | / 1 1 : : : : 2 2 3 3 3 [ % % % % % )                                                                 ",
"                                                            ] % % } | | | | | / 1 1 : : : : 2 2 3 3 3 [ % % % % % )                                                                 ",
"                                                            ] % % } 4 4 [ [ [ 4 4 4 4 5 5 [ [ [ 4 3 3 [ % % % % % 6                                                                 ",
"                                                            7 % % } 4 4 8 9 9 8 4 4 4 0 0 8 9 9 8 3 3 a % % % % % b                                                                 ",
"                                                            7 % % } 4 4 8 9 9 8 4 4 4 0 0 8 9 9 8 3 3 a % % % % % b                                                                 ",
"                                                            c % % } 4 4 8 9 9 8 d d 4 e e 8 9 9 8 4 4 3 f f % % % g                                                                 ",
"                                                            } % % h 4 4 4 i i j k k 4 l l m n n 4 4 4 3 o o % p p                                                                   ",
"                                                            } % % h 4 4 4 i i j k k 4 l l m n n 4 4 4 3 o o % p p                                                                   ",
"                                                              } } q 4 4 4 4 4 4 4 4 4 r r s 4 4 4 3 3 t u u v                                                                       ",
"                                                                    w w 4 4 4 4 4 4 4 x x y 4 4 4 3 3 z u u A                                                                       ",
"                                                                    w w 4 4 4 4 4 4 4 x x y 4 4 4 3 3 z u u A                                                                       ",
"                                                                    [ [ 4 4 4 4 4 4 B 4 4 4 4 4 3 C C u D D                                                                         ",
"                                                                        [ E E 4 4 4 4 4 4 4 3 3 F G G H I I                                                                         ",
"                                                                        [ E E 4 4 4 4 4 4 4 3 3 F G G H I I                                                                         ",
"                                                                              J K K L M M N O O O                                                                                   ",
"                                                                                P P / / / / Q Q                                                                                     ",
"                                                                                P P / / / / Q Q                                                                                     ",
"                                                                          P P P R R 4 4 4 / P P P P P                                                                               ",
"                                                                    P P P S S S S S P P P P T T T T T P P P U                                                                       ",
"                                                                    P P P S S S S S P P P P T T T T T P P P U                                                                       ",
"                                                                  P S S S S S S S S S S S S T T T T T T T T T U U                                                                   ",
"                                                              P P P S S S S S S S S S S S T T T T T T T T T T T T U                                                                 ",
"                                                              P P P S S S S S S S S S S S T T T T T T T T T T T T U                                                                 ",
"                                                      V V V V V V P P P S S S S S S W W W W W W T T T T T T T P P U                                                                 ",
"                                                V V V X X X X Y Y Y V V V S S S W W W W W W W W W T T T U U P Z Z Z U U                                                             ",
"                                                V V V X X X X Y Y Y V V V S S S W W W W W W W W W T T T U U P Z Z Z U U                                                             ",
"                                                V V V   8 8 8 ` ` ` X X X V V W W W W W W W W W W T T T U U Z 4 4 Z P P                                                             ",
"                                            V V X     8 8 8 Z 4 4 Z P P 8 V V V S S S W W W W W W T T T U U P Z Z 4 Z Z P                                                           ",
"                                            V V X     8 8 8 Z 4 4 Z P P 8 V V V S S S W W W W W W T T T U U P Z Z 4 Z Z P                                                           ",
"                                            V V X 8 8   8 8 Z 4 4  .P P 8 S S X ....+.S S W W W T T T T U U P Z Z 4 Z Z P                                                           ",
"                                                X     8     8 Z Z 4  . .P 8 8 X X X X V V W W W W T T P P P Z 4 4 4 Z Z P                                                           ",
"                                                X     8     8 Z Z 4  . .P 8 8 X X X X V V W W W W T T P P P Z 4 4 4 Z Z P                                                           ",
"                                                X 8 8   8 8 8  . .8 Z Z 8 8 8 X X X X X X V V V T P P Z Z Z 4 Z Z Z P P                                                             ",
"                                                  X X       8 8 8  .8 8 Z X X X X X @.#.#.X X X P Z Z 4 4 4 Z P P P                                                                 ",
"                                                  X X       8 8 8  .8 8 Z X X X X X @.#.#.X X X P Z Z 4 4 4 Z P P P                                                                 ",
"                                                      X X X X 8 8 Z $.$.` X X X %.%.U U U &.P P Z 4 4 Z Z Z P                                                                       ",
"                                                              X X X ` ` X Q Q *.Q Q Q Q Q Q Q Q P Z Z P P P                                                                         ",
"                                                              X X X ` ` X Q Q *.Q Q Q Q Q Q Q Q P Z Z P P P                                                                         ",
"                                                                    P P =.=.=.=.=.=.=.=.=.=.=.=.=.P P =.U U                                                                         ",
"                                                                    P P =.8 8 8 8 8 8 8 8 8 8 8 8 8 8 =.U U                                                                         ",
"                                                                    P P =.8 8 8 8 8 8 8 8 8 8 8 8 8 8 =.U U                                                                         ",
"                                                                    P P =.8 8 8 8 8 8 8 8 8 8 8 8 8 8 =.U U                                                                         ",
"                                                                  Q P P =.8 8 8 8 8 8 8 8 8 8 8 8 8 8 =.U U                                                                         ",
"                                                                  Q P P =.8 8 8 8 8 8 8 8 8 8 8 8 8 8 =.U U                                                                         ",
"                                                                  Q =.=.8 8 8 8 8 8 =.P P -.8 8 8 8 8 8 =.=.U                                                                       ",
"                                                                  P =.=.8 8 8 8 =.=.Q P P Q =.=.8 8 8 8 =.=.Q                                                                       ",
"                                                                  P =.=.8 8 8 8 =.=.Q P P Q =.=.8 8 8 8 =.=.Q                                                                       ",
"                                                              P P =.8 8 8 8 8 8 =.=.Q     P =.=.8 8 8 8 8 8 =.P P                                                                   ",
"                                                              P P =.8 8 8 8 8 8 =.=.P     P =.=.8 8 8 8 8 8 =.Q Q                                                                   ",
"                                                              P P =.8 8 8 8 8 8 =.=.P     P =.=.8 8 8 8 8 8 =.Q Q                                                                   ",
"                                                              P P =.8 8 8 8 8 8 =.=.P     P =.=.8 8 8 8 8 8 =.P P                                                                   ",
"                                                              P P P P P P P P P P P P     P P P P P P P P P P Q Q                                                                   ",
"                                                              P P P P P P P P P P P P     P P P P P P P P P P Q Q                                                                   ",
"                                                              P P ;.4 4 ;.P P                     P P ;.4 4 ;.Q Q                                                                   ",
"                                                              P P ;.4 4 ;.P P                     P P ;.4 4 ;.Q Q                                                                   ",
"                                                              P P ;.4 4 ;.P P                     P P ;.4 4 ;.Q Q                                                                   ",
"                                                              P P Q Q Q Q Q Q                     P P >.Q Q Q Q Q                                                                   ",
"                                                              P P =.8 8 =.P P                     Q Q =.8 8 =.Q Q                                                                   ",
"                                                              P P =.8 8 =.P P                     Q Q =.8 8 =.Q Q                                                                   ",
"                                                            Q P P Q Q Q Q Q Q                     Q Q Q Q Q Q Q Q Q                                                                 ",
"                                                        Q Q 8 8 8 8 8 8 8 8 8 Q                 Q 8 8 8 8 8 8 8 8 8 Q Q                                                             ",
"                                                        Q Q 8 8 8 8 8 8 8 8 8 Q                 Q 8 8 8 8 8 8 8 8 8 Q Q                                                             ",
"                                                      Q =.=.=.=.=.=.=.=.=.=.=.Q                 Q =.=.=.=.=.=.=.=.=.=.=.Q                                                           ",
"                                                        Q Q Q Q Q Q Q Q Q Q Q Q                   Q Q Q Q Q Q Q Q Q Q Q                                                             ",
"                                                        Q Q Q Q Q Q Q Q Q Q Q Q                   Q Q Q Q Q Q Q Q Q Q Q                                                             ",
"                                                                                                                                                                                    ",
"                                                                                                                                                                                    ",
"                                                                                                                                                                                    ",
"                                                                                                                                                                                    ",
"                                                                                                                                                                                    ",
"                                                                                                                                                                                    "};
