/* XPM */
static xpm_row_t const tennismachine_xpm[] = {
"80 86 10 1",
" 	c None",
".	c #000000",
"+	c #FFFFFF",
"@	c #DFFF20",
"#	c #B0C919",
"$	c #E1E0E0",
"%	c #263138",
"&	c #151B1F",
"*	c #36454F",
"=	c #0C1012",
"                                                                                ",
"                                         ......                                 ",
"                            ......      .+@@@@+.                                ",
"                           .+@@@@+.    .++@@@@++.                               ",
"                          .++@@@@++. ..+++@@@@+++....                           ",
"                ..........+++@@@@+++..@@++@@@@++@@.@+.  ......                  ",
"               .+@@@@+.@.@@++@@@@++@@.@@++@@@@++@@.@++..+@@@@+.                 ",
"              .++@@@@++..@@++@@@@++@@.@@++@@@@++@#.@++.++@@@@++.                ",
"             .+++@@@@+++.@@++@@@@++@#.@@++@@@@+$##.@+.+++@@@@......             ",
"            .@@++@@@@++@@.@++@@@@+$##.@@++@###$$##.@.@@++@@@.+@@@@+.            ",
"            .@@++@@@@++@@.@++@###$$##.@@$$####$$##.@.@......++@@@@++.           ",
"            .@@++@@@@++@#......##$$##..$$$####$$$..@..+@@@@+.+@@@@+++.          ",
"            .@@++@@@@+$##.@@@@+.#$$$.+@.$$####$$..##.++@@@@++.@@@@++@@.         ",
"            .@@++@###$$##.@@@@++.$$.$$##.$####$..##.+++@@@@+++.@@@++@@.         ",
"           ..@@$$####$$##.#@@@+++.......+........#.@@++@@@@++@@.@@++@#.         ",
"           .@.$$$####$$$..@@@@++.+@@@@+.++@@@@+++..@@++@@@@++@@.@@+$##.         ",
"           .@@.$$####$$..+@@@@+.++@@@@++.+@@@@.....@@++@@@@++@#.##$$##.         ",
"           .@@+.$####$...+@@@@.+++@@@@+++.@@@.+@@@.@@++@@@@+$##.##$$##.         ",
"           .@@.+.......++.@@@.@@++@@@@++@@.@.++@@@.@@++@###$$##.##$$$.          ",
"           .@.@@++@@@@++@@.##.@@++@@@@++@@..+++@@@.@@$$####$$##.##$$.           ",
"            ..@@++@@@@++@@.##.@@++@@@@++@#.@@++@@@@.$$$####$$$..##$.            ",
"            %.@@++@@@@++@#.##.@@++@@@@+$##.@@++@@@@+.$$####$$......&            ",
"            %.@@++@@@@+$##.##.@@++@###$$##.@@++@@@@++.$####$..$##.&&            ",
"            %.@@++@###$$##.##.@@$$####$$##.@@++@@@@+$#.......$$##.&&            ",
"            %.@@$$####$$##.....$$$####$$$..@@++@###$$##.$####$$##.&&            ",
"            %%.$$$####$$$.@@@+$.$$####$$...@@$$####$$##.$####$$$.%&&            ",
"            %%%%%%%%%%%%%%%%%%%%%%%%%%%%%%%%%%%%%%%%%%%%%%%%%%%%%%&&            ",
"            %%%%%%%%%%%%%%%%%%%%%%%%%%%%%%%%%%%%%%%%%%%%%%%%%%%%%%&&            ",
"            %%&&&&&&&&&&&&&&&&&&&&&&&&&&&&&&&&&&&&&&&&&&&&&&&&&&%%&&            ",
"            %%&&&&&&&&&&&&&&&&&&&&&&&&&&&&&&&&&&&&&&&&&&&&&&&&&&%%&&            ",
"            %%&&************************************************%%&&            ",
"            %%&&************************************************%%&&            ",
"            %%&&************************************************%%&&            ",
"            %%&&************************************************%%&&            ",
"            %%&&************************************************%%&&            ",
"            %%&&************************************************%%&&            ",
"            %%&&************************************************%%&&            ",
"            %%&&************************************************%%&&            ",
"            %%&&************************************************%%&&            ",
"            %%&&************************************************%%&&            ",
"            %%&&************************************************%%&&            ",
"            %%&&************************************************%%&&            ",
"            %%&&********************&&&&&&&*********************%%&&            ",
"            %%&&*******************&&%%%%%%&&*******************%%&&            ",
"            %%&&*****************&&&%******%%&******************%%&&            ",
"            %%&&****************&&%%%*******%%&*****************%%&&            ",
"            %%&&***************&&%%**********%%&****************%%&&            ",
"            %%&&***************&%%************%%&***************%%&&            ",
"            %%&&***************&%**&&&&&&&&&***%&***************%%&&            ",
"            %%&&***************&%*&&&%%%%%%&&**%&***************%%&&            ",
"            %%&&***************&%&&%%&&&&&&%%&*%&***************%%&&            ",
"            %%&&***************&&&%%&======&%%&%&***************%%&&            ",
"            %%&&***************&&%%&========&%%&&***************%%&&            ",
"            %%&&***************&&%&==========&%&&***************%%&&            ",
"            %%&&***************&%&============&%&***************%%&&            ",
"            %%&&***************&%&============&%&***************%%&&            ",
"            %%&&***************&%&============&%&***************%%&&            ",
"            %%&&***************&%&============&%&***************%%&&            ",
"            %%&&***************&%&============&%&***************%%&&            ",
"            %%&&***************&%&============&%&***************%%&&            ",
"            %%&&****************&%&==========&%&&***************%%&&            ",
"            %%&&****************&%%&========&%%&&***************%%&&            ",
"            %%&&*****************&%%&======&%%&&****************%%&&            ",
"            %%&&******************&%%&&&&&&%%&&*****************%%&&            ",
"            %%&&*******************&&%%%%%%%&&******************%%&&            ",
"            %%&&*********************&&&&&&&&*******************%%&&            ",
"            %%&&************************************************%%&&            ",
"            %%&&************************************************%%&&            ",
"            %%&&************************************************%%&&            ",
"            %%&&************************************************%%&&            ",
"            %%&&************************************************%%&&            ",
"            %%&&************************************************%%&&            ",
"            %%&&************************************************%%&&            ",
"            %%&&************************************************%%&&            ",
"            %%&&************************************************%%&&            ",
"            %%&&************************************************%%&&            ",
"            %%&&************************************************%%&&            ",
"            %%%%%%%%%%%%%%%%%%%%%%%%%%%%%%%%%%%%%%%%%%%%%%%%%%%%%%&&            ",
"            %%%%%%%%%%%%%%%%%%%%%%%%%%%%%%%%%%%%%%%%%%%%%%%%%%%%%%&&            ",
"            &&&&&&&&&&&&&&&&&&&&&&&&&&&&&&&&&&&&&&&&&&&&&&&&&&&&&&&&            ",
"            &&&&&&&&&&&&&&&&&&&&&&&&&&&&&&&&&&&&&&&&&&&&&&&&&&&&&&&&            ",
"                                                                                ",
"                                                                                ",
"                                                                                ",
"                                                                                ",
"                                                                                "};
